<svg xmlns="http://www.w3.org/2000/svg" viewBox="0 0 100 100">
  <!-- Background circle -->
  <circle cx="50" cy="50" r="48" fill="#EF4444"/>
  
  <!-- Pokeball top half -->
  <path d="M50 2 A48 48 0 0 1 98 50 L65 50 A15 15 0 0 0 35 50 L2 50 A48 48 0 0 1 50 2" fill="#DC2626"/>
  
  <!-- Pokeball bottom half -->
  <path d="M2 50 A48 48 0 0 0 98 50 L65 50 A15 15 0 0 1 35 50 L2 50" fill="#F8FAFC"/>
  
  <!-- Center line -->
  <rect x="2" y="47" width="96" height="6" fill="#1E293B"/>
  
  <!-- Center circle outline -->
  <circle cx="50" cy="50" r="15" fill="#F8FAFC" stroke="#1E293B" stroke-width="4"/>
  
  <!-- Center button -->
  <circle cx="50" cy="50" r="8" fill="#1E293B"/>
  <circle cx="50" cy="50" r="4" fill="#F8FAFC"/>
</svg>
